<svg xmlns="http://www.w3.org/2000/svg" width="190.711" height="182.889" viewBox="0 0 190.711 182.889">
  <g id="Group_165" data-name="Group 165" transform="translate(-105.383 -514.111)">
    <g id="Group_174" data-name="Group 174" transform="translate(99.556 -13)">
      <path id="Icon_open-grid-three-up" data-name="Icon open-grid-three-up" d="M0,0V21.592H22.789V0ZM34.183,0V21.592H56.971V0ZM68.366,0V21.592H91.154V0ZM0,32.387V53.979H22.789V32.387Zm34.183,0V53.979H56.971V32.387Zm34.183,0V53.979H91.154V32.387ZM0,64.775V86.366H22.789V64.775Zm34.183,0V86.366H56.971V64.775Zm34.183,0V86.366H91.154V64.775Z" transform="translate(105.383 527.111)" fill="#519259"/>
      <path id="Icon_open-grid-three-up-2" data-name="Icon open-grid-three-up" d="M0,0V21.592H22.789V0ZM34.183,0V21.592H56.971V0ZM68.366,0V21.592H91.154V0ZM0,32.387V53.979H22.789V32.387Zm34.183,0V53.979H56.971V32.387Zm34.183,0V53.979H91.154V32.387ZM0,64.775V86.366H22.789V64.775Zm34.183,0V86.366H56.971V64.775Zm34.183,0V86.366H91.154V64.775Z" transform="translate(105.383 623.634)" fill="#519259"/>
    </g>
    <g id="Group_170" data-name="Group 170" transform="translate(0 2)">
      <path id="Icon_open-grid-three-up-3" data-name="Icon open-grid-three-up" d="M0,0V21.592H22.789V0ZM34.183,0V21.592H56.971V0ZM68.366,0V21.592H91.154V0ZM0,32.387V53.979H22.789V32.387Zm34.183,0V53.979H56.971V32.387Zm34.183,0V53.979H91.154V32.387ZM0,64.775V86.366H22.789V64.775Zm34.183,0V86.366H56.971V64.775Zm34.183,0V86.366H91.154V64.775Z" transform="translate(105.383 514.111)" fill="#519259"/>
      <path id="Icon_open-grid-three-up-4" data-name="Icon open-grid-three-up" d="M0,0V21.592H22.789V0ZM34.183,0V21.592H56.971V0ZM68.366,0V21.592H91.154V0ZM0,32.387V53.979H22.789V32.387Zm34.183,0V53.979H56.971V32.387Zm34.183,0V53.979H91.154V32.387ZM0,64.775V86.366H22.789V64.775Zm34.183,0V86.366H56.971V64.775Zm34.183,0V86.366H91.154V64.775Z" transform="translate(105.383 608.634)" fill="#519259"/>
    </g>
  </g>
</svg>
